# AST/ASF file generated using VICON BodyLanguage
# -----------------------------------------------
:version 1.10
:name VICON
:units
  mass 1.0
  length 0.45
  angle deg
:documentation
   .ast/.asf automatically generated from VICON data using
   VICON BodyBuilder and BodyLanguage model FoxedUp or BRILLIANT.MOD
:root
   order TX TY TZ RX RY RZ
   axis XYZ
   position 0 0 0  
   orientation 0 0 0 
:bonedata
  begin
     id 1 
     name lhipjoint
     direction 0.645893 -0.654526 0.392961 
     length 2.38111 
     axis 0 0 0  XYZ
  end
  begin
     id 2 
     name lfemur
     direction 0.34202 -0.939693 0  
     length 6.6822  
     axis 0 0 20  XYZ
    dof rx ry rz
    limits (-160.0 20.0)
           (-70.0 70.0)
           (-60.0 70.0)
  end
  begin
     id 3 
     name ltibia
     direction 0.34202 -0.939693 0   
     length 6.93904   
     axis 0 0 20   XYZ
    dof rx
    limits (-10.0 170.0)
  end
  begin
     id 4 
     name lfoot
     direction 0.0694967 -0.190941 0.979138   
     length 2.13616   
     axis -90 7.62852e-016 20   XYZ
    dof rx rz
    limits (-45.0 90.0)
           (-70.0 20.0)
  end
  begin
     id 5 
     name ltoes
     direction 1.535e-011 -4.2202e-011 1   
     length 1.07536   
     axis -90 7.62852e-016 20   XYZ
    dof rx
    limits (-90.0 20.0)
  end
  begin
     id 6 
     name rhipjoint
     direction -0.700219 -0.612087 0.367481   
     length 2.54621  
     axis 0 0 0  XYZ 
  end
  begin
     id 7 
     name rfemur
     direction -0.34202 -0.939693 0   
     length 6.55353   
     axis 0 0 -20   XYZ
    dof rx ry rz
    limits (-160.0 20.0)
           (-70.0 70.0)
           (-70.0 60.0)
  end
  begin
     id 8 
     name rtibia
     direction -0.34202 -0.939693 0   
     length 6.8736   
     axis 0 0 -20   XYZ
    dof rx
    limits (-10.0 170.0)
 end
 begin
     id 9 
     name rfoot
     direction -0.0679995 -0.186827 0.980037   
     length 2.1218  
     axis -90 -7.62852e-016 -20   XYZ
    dof rx rz
    limits (-45.0 90.0)
           (-20.0 70.0)
  end
  begin
     id 10 
     name rtoes
     direction -1.53589e-011 -4.21772e-011 1   
     length 1.06864   
     axis -90 -7.62852e-016 -20   XYZ
    dof rx
    limits (-90.0 20.0)
  end
  begin
     id 11 
     name lowerback
     direction -0.0416607 0.996347 -0.0745409   
     length 2.12205   
     axis 0 0 0   XYZ
    dof rx ry rz
    limits (-20.0 45.0)
           (-30.0 30.0)
           (-30.0 30.0)
  end
  begin
     id 12 
     name upperback
     direction -0.000153993 0.999276 -0.0380568   
     length 2.12759   
     axis 0 0 0   XYZ
    dof rx ry rz
    limits (-20.0 45.0)
           (-30.0 30.0)
           (-30.0 30.0)
  end
  begin
     id 13 
     name thorax
     direction 0.0187671 0.999821 -0.00241421   
     length 2.13704   
     axis 0 0 0   XYZ
    dof rx ry rz
    limits (-20.0 45.0)
           (-30.0 30.0)
           (-30.0 30.0)
  end
  begin
     id 14 
     name lowerneck
     direction 0.0268157 0.964865 0.261374   
     length 1.65253   
     axis 0 0 0   XYZ
    dof rx ry rz
    limits (-20.0 45.0)
           (-30.0 30.0)
           (-30.0 30.0)
  end
  begin
     id 15 
     name upperneck
     direction 0.00263774 0.939908 -0.341418   
     length 1.72375   
     axis 0 0 0   XYZ
    dof rx ry rz
    limits (-20.0 45.0)
           (-30.0 30.0)
           (-30.0 30.0)
  end
  begin
     id 16
     name head
     direction -0.00526001 0.989001 -0.147818  
     length 1.74878  
     axis 0 0 0   XYZ
    dof rx ry rz
    limits (-20.0 45.0)
           (-30.0 30.0)
           (-30.0 30.0)
  end
  begin
     id 17 
     name lclavicle
     direction 0.881214 0.461162 -0.103884  
     length 3.25108  
     axis 0 0 0   XYZ
    dof ry rz
    limits (-20.0 10.0)
           (0.0 20.0)
  end
  begin
     id 18 
     name lhumerus
     direction 1 -4.4899e-011 3.38092e-027   
     length 4.87408   
     axis 180 -30 -90   XYZ
    dof rx ry rz
    limits (-60.0 90.0)
           (-90.0 90.0)
           (-90.0 90.0)
  end
  begin
     id 19
     name lradius
     direction 1 -4.48931e-011 9.96288e-027   
     length 2.76729   
     axis 180 -30 -90   XYZ
    dof rx
    limits (-10.0 170.0)
  end
  begin
     id 20
     name lwrist
     direction 1 -4.4896e-011 1.50617e-026   
     length 1.38364   
     axis -9.31234e-015 90 90   XYZ
    dof ry
    limits (-180.0 0.0)
 end
  begin
     id 21 
     name lhand
     direction 1 -4.49038e-011 3.01286e-026   
     length 0.98922   
     axis -1.92217e-014 90 90   XYZ
    dof rx rz
    limits (-90.0 90.0)
           (-45.0 45.0)
  end
  begin
     id 22 
     name lfingers
     direction 1 -4.49051e-011 6.02588e-026   
     length 0.797535   
     axis -3.84436e-014 90 90   XYZ
    dof rx
    limits (0.0 90.0)
  end
  begin
     id 23
     name lthumb
     direction 0.707107 -6.34901e-011 0.707107   
     length 1.14511   
     axis -90 45 2.19363e-014   XYZ
    dof rx rz
    limits (-45.0 45.0)
           (-45.0 45.0)
  end
  begin
     id 24 
     name rclavicle
     direction -0.893894 0.441652 -0.0767889   
     length 3.29361  
     axis 0 0 0   XYZ 
    dof ry rz
    limits (-10.0 20.0)
           (-20.0 0.0)
  end
  begin
     id 25 
     name rhumerus
     direction -1 -4.48945e-011 8.0491e-028  
     length 4.71404   
     axis 180 30 90   XYZ
    dof rx ry rz
    limits (-90.0 60.0)
           (-90.0 90.0)
           (-90.0 90.0)
  end
  begin
     id 26 
     name rradius
     direction -1 -4.48986e-011 9.27795e-027   
     length 2.83468   
     axis 180 30 90   XYZ
    dof rx
    limits (-10.0 170.0)
  end
  begin
     id 27 
     name rwrist
     direction -1 -4.49029e-011 1.5064e-026   
     length 1.41734   
     axis -9.31234e-015 -90 -90   XYZ
    dof ry
    limits (-180.0 0.0)
  end
  begin
     id 28
     name rhand
     direction -1 -4.48857e-011 3.01165e-026   
     length 0.868195   
     axis -1.92217e-014 -90 -90   XYZ
    dof rx rz
    limits (-90.0 90.0)
           (-45.0 45.0)
  end
  begin
     id 29
     name rfingers
     direction -1 -4.49048e-011 6.02585e-026   
     length 0.699961   
     axis -3.84436e-014 -90 -90   XYZ
    dof rx
    limits (0.0 90.0)
  end
  begin
     id 30
     name rthumb
     direction -0.707107 -6.34854e-011 0.707107   
     length 1.00501   
     axis -90 -45 -2.19363e-014   XYZ
    dof rx rz
    limits (-45.0 45.0)
           (-45.0 45.0)
  end
:hierarchy
  begin
    root lhipjoint rhipjoint lowerback
    lhipjoint lfemur
    lfemur ltibia
    ltibia lfoot
    lfoot ltoes
    rhipjoint rfemur
    rfemur rtibia
    rtibia rfoot
    rfoot rtoes
    lowerback upperback
    upperback thorax
    thorax lowerneck lclavicle rclavicle
    lowerneck upperneck
    upperneck head
    lclavicle lhumerus
    lhumerus lradius
    lradius lwrist
    lwrist lhand lthumb
    lhand lfingers
    rclavicle rhumerus
    rhumerus rradius
    rradius rwrist
    rwrist rhand rthumb
    rhand rfingers
  end

#!OML:ASF H:\ManfredObstacles\Project 1\Capture day 2\Session 1\male.ASF
:FULLY-SPECIFIED
:DEGREES
160
root 0.976555 15.0835 -8.97964 -174.798 15.6704 181.695
lowerback 3.68994 2.71095 -2.20471
upperback 2.51143 3.64503 1.08278
thorax 0.307462 1.83295 2.21632
lowerneck -29.2878 -0.393118 4.89008
upperneck 44.5004 2.74641 -2.53687
head 25.758 2.8667 -1.01348
rclavicle 1.86858e-014 -9.74045e-015
rhumerus -60.9767 -6.86779 -67.4508
rradius 86.6344
rwrist 8.70588
rhand -11.4576 -4.16385
rfingers 7.12502
rthumb 14.5796 -33.6314
lclavicle 1.86858e-014 -9.74045e-015
lhumerus -57.666 -20.669 84.7356
lradius 72.2032
lwrist -22.3555
lhand -11.0574 5.73476
lfingers 7.12502
lthumb 14.9652 35.1741
rfemur -11.8792 12.5247 -24.245
rtibia 136.657
rfoot -13.9748 -10.5693
rtoes -12.9798
lfemur -37.406 3.97997 -19.6685
ltibia 60.8061
lfoot 1.19175 17.7038
ltoes -9.18809
161
root 0.990646 14.9719 -9.17304 -175.045 15.5311 181.101
lowerback 4.22289 2.47667 -2.92102
upperback 2.82508 3.32146 0.875226
thorax 0.325091 1.66986 2.4003
lowerneck -29.4623 -0.0819955 4.90255
upperneck 43.9599 2.74608 -2.22153
head 25.2294 2.81094 -0.861052
rclavicle 1.81391e-014 1.3418e-014
rhumerus -62.5169 -7.92302 -66.9685
rradius 86.2498
rwrist 7.35099
rhand -11.6537 -4.44357
rfingers 7.12502
rthumb 14.3907 -33.9247
lclavicle 1.81391e-014 1.3418e-014
lhumerus -53.9151 -21.0922 84.4295
lradius 71.5891
lwrist -24.7993
lhand -11.7661 5.79205
lfingers 7.12502
lthumb 14.2824 35.2809
rfemur -15.3799 13.0404 -23.1122
rtibia 138.65
rfoot -14.1611 -11.9341
rtoes -13.3918
lfemur -36.8693 4.26599 -20.3995
ltibia 61.8876
lfoot -0.438496 18.7376
ltoes -10.3382
162
root 1.00532 14.8827 -9.36929 -175.136 15.4626 180.522
lowerback 4.54485 2.2185 -3.58741
upperback 3.07319 2.96669 0.614202
thorax 0.407011 1.48955 2.51399
lowerneck -29.5625 0.266715 4.99819
upperneck 43.4124 2.8019 -1.93393
head 24.6999 2.79521 -0.727028
rclavicle -1.21756e-015 9.31803e-016
rhumerus -63.9764 -8.67859 -66.7532
rradius 86.0277
rwrist 5.9762
rhand -11.5753 -4.55885
rfingers 7.12502
rthumb 14.4662 -34.0346
lclavicle -1.21756e-015 9.31803e-016
lhumerus -50.425 -21.3901 83.9569
lradius 71.3801
lwrist -27.13
lhand -12.5689 5.82601
lfingers 7.12502
lthumb 13.5087 35.3679
rfemur -18.9268 13.8444 -21.0604
rtibia 140.082
rfoot -13.8728 -13.4148
rtoes -14.0931
lfemur -36.2576 4.59427 -21.1416
ltibia 62.5977
lfoot -1.74663 19.812
ltoes -11.2481
163
root 1.02474 14.8155 -9.56662 -175.157 15.3592 179.729
lowerback 4.71363 1.88643 -4.4868
upperback 3.25492 2.50697 0.265491
thorax 0.515107 1.25269 2.67884
lowerneck -29.6102 0.677565 5.21604
upperneck 42.8713 2.95117 -1.71129
head 24.1978 2.83385 -0.628555
rclavicle -2.22142e-014 4.96962e-015
rhumerus -65.2896 -9.10754 -66.8356
rradius 85.9378
rwrist 4.67904
rhand -11.368 -4.447
rfingers 7.12502
rthumb 14.666 -33.9083
lclavicle -2.22142e-014 4.96962e-015
lhumerus -47.2399 -21.5515 83.3527
lradius 71.5628
lwrist -29.0404
lhand -13.3812 5.93473
lfingers 7.12502
lthumb 12.7257 35.527
rfemur -22.4857 14.5831 -19.1
rtibia 140.899
rfoot -13.3914 -14.6471
rtoes -15.013
lfemur -35.6067 4.84177 -22.1395
ltibia 62.9694
lfoot -2.67428 20.8774
ltoes -11.8342
164
root 1.05158 14.7673 -9.76317 -175.171 15.1055 178.679
lowerback 4.81254 1.44233 -5.67649
upperback 3.37734 1.89245 -0.162125
thorax 0.62038 0.935633 2.93344
lowerneck -29.5725 1.12302 5.50554
upperneck 42.375 3.19007 -1.53677
head 23.74 2.92272 -0.544738
rclavicle -5.38706e-014 5.96354e-015
rhumerus -66.4336 -9.24159 -67.1917
rradius 85.9459
rwrist 3.66593
rhand -11.0606 -4.25299
rfingers 7.12502
rthumb 14.9621 -33.6925
lclavicle -5.38706e-014 5.96354e-015
lhumerus -44.3653 -21.6421 82.6528
lradius 72.0776
lwrist -30.264
lhand -14.1045 6.16989
lfingers 7.12502
lthumb 12.0283 35.8042
rfemur -26.0499 14.8168 -17.8398
rtibia 141.126
rfoot -13.0881 -15.3677
rtoes -15.9206
lfemur -34.9346 4.90695 -23.427
ltibia 63.0754
lfoot -3.20733 21.8549
ltoes -12.1343
165
root 1.08582 14.7343 -9.9591 -175.192 14.6056 177.531
lowerback 4.90057 0.861934 -6.99284
upperback 3.46527 1.09818 -0.600276
thorax 0.732783 0.528787 3.2544
lowerneck -29.4463 1.59157 5.82723
upperneck 41.9414 3.53673 -1.4266
head 23.3372 3.05968 -0.471035
rclavicle 2.08724e-014 2.70347e-014
rhumerus -67.4013 -9.11888 -67.7592
rradius 86.0074
rwrist 3.0539
rhand -10.7538 -4.02567
rfingers 7.12502
rthumb 15.2577 -33.443
lclavicle 2.08724e-014 2.70347e-014
lhumerus -41.7606 -21.7296 81.8885
lradius 72.8904
lwrist -30.3941
lhand -14.5023 6.46079
lfingers 7.12502
lthumb 11.6447 36.1172
rfemur -29.4324 14.4523 -17.0121
rtibia 140.756
rfoot -13.0306 -15.6396
rtoes -16.7059
lfemur -34.2416 4.74016 -24.8199
ltibia 63.0204
lfoot -3.41729 22.6671
ltoes -12.1292
166
root 1.12558 14.7131 -10.1544 -175.197 13.8039 176.497
lowerback 5.03424 0.143221 -8.20801
upperback 3.53561 0.122786 -0.973659
thorax 0.849827 0.0337208 3.58919
lowerneck -29.2657 2.06655 6.15004
upperneck 41.5776 3.98411 -1.40211
head 23.0026 3.23224 -0.41476
rclavicle -6.06293e-015 2.78299e-015
rhumerus -68.1995 -8.79458 -68.4581
rradius 86.0949
rwrist 2.85839
rhand -10.4912 -3.80114
rfingers 7.12502
rthumb 15.5106 -33.199
lclavicle -6.06293e-015 2.78299e-015
lhumerus -39.3905 -21.8653 81.1104
lradius 73.9803
lwrist -29.1731
lhand -14.4453 6.81682
lfingers 7.12502
lthumb 11.6997 36.4701
rfemur -32.4943 13.6141 -16.12
rtibia 139.815
rfoot -13.1848 -15.6403
rtoes -17.3668
lfemur -33.542 4.31521 -26.0853
ltibia 62.9162
lfoot -3.41804 23.307
ltoes -11.9934
167
root 1.16876 14.7027 -10.3505 -175.18 12.7048 175.747
lowerback 5.24756 -0.677506 -9.13086
upperback 3.61108 -0.988077 -1.22626
thorax 0.970761 -0.526553 3.88667
lowerneck -28.8215 2.51271 6.45828
upperneck 41.5224 4.53896 -1.51846
head 22.2717 3.42025 -0.3679
rclavicle 8.05078e-015 9.93923e-015
rhumerus -68.8707 -8.37133 -69.1844
rradius 86.1807
rwrist 3.02179
rhand -10.3211 -3.55828
rfingers 7.12502
rthumb 15.6744 -32.9434
lclavicle 8.05078e-015 9.93923e-015
lhumerus -37.1877 -22.1064 80.3408
lradius 75.2477
lwrist -26.9185
lhand -13.984 7.25006
lfingers 7.12502
lthumb 12.1446 36.8776
rfemur -35.1127 12.5976 -14.7048
rtibia 138.305
rfoot -13.3458 -15.6162
rtoes -17.9484
lfemur -32.8107 3.64261 -27.0202
ltibia 62.8351
lfoot -3.32794 23.7715
ltoes -11.8249
168
root 1.21317 14.7019 -10.5475 -175.147 11.3974 175.399
lowerback 5.56226 -1.54559 -9.65029
upperback 3.70819 -2.16629 -1.31445
thorax 1.08093 -1.1191 4.13036
lowerneck -28.6289 2.94173 6.68734
upperneck 41.2891 5.12529 -1.67523
head 22.1018 3.62044 -0.350453
rclavicle -1.2921e-014 -1.11319e-014
rhumerus -69.4432 -7.90626 -69.8576
rradius 86.2684
rwrist 3.39356
rhand -10.2321 -3.28648
rfingers 7.12502
rthumb 15.7601 -32.6648
lclavicle -1.2921e-014 -1.11319e-014
lhumerus -35.098 -22.4174 79.6046
lradius 76.5817
lwrist -24.0785
lhand -13.2689 7.71974
lfingers 7.12502
lthumb 12.8339 37.3052
rfemur -37.3466 11.7227 -12.5656
rtibia 136.262
rfoot -13.4157 -15.7353
rtoes -18.4281
lfemur -32.0337 2.79552 -27.4874
ltibia 62.8078
lfoot -3.25761 24.0884
ltoes -11.688
169
root 1.25653 14.7109 -10.746 -175.133 9.97134 175.455
lowerback 6.00858 -2.40322 -9.74851
upperback 3.82629 -3.33788 -1.24885
thorax 1.1368 -1.70535 4.30383
lowerneck -28.4673 3.33057 6.87026
upperneck 41.1046 5.72679 -1.91135
head 21.9864 3.81228 -0.3599
rclavicle -4.29375e-014 -1.31198e-014
rhumerus -69.9765 -7.4822 -70.4277
rradius 86.3814
rwrist 3.84191
rhand -10.1968 -3.01031
rfingers 7.12502
rthumb 15.7941 -32.386
lclavicle -4.29375e-014 -1.31198e-014
lhumerus -33.0774 -22.8071 78.9019
lradius 77.8637
lwrist -21.2865
lhand -12.4932 8.15606
lfingers 7.12502
lthumb 13.5817 37.6931
rfemur -39.2419 11.1465 -9.81132
rtibia 133.707
rfoot -13.3782 -16.0736
rtoes -18.819
lfemur -31.1717 1.83569 -27.4776
ltibia 62.8039
lfoot -3.2062 24.2901
ltoes -11.6611
